<?xml version="1.0" encoding="utf-8"?>
<!-- Generator: Adobe Illustrator 25.2.1, SVG Export Plug-In . SVG Version: 6.00 Build 0)  -->
<svg version="1.1" id="Layer_1" xmlns="http://www.w3.org/2000/svg" xmlns:xlink="http://www.w3.org/1999/xlink" x="0px" y="0px"
	 viewBox="0 0 942.71 566.93" style="enable-background:new 0 0 942.71 566.93;" xml:space="preserve">
<style type="text/css">
	.st0{fill-rule:evenodd;clip-rule:evenodd;fill:url(#SVGID_1_);}
	.st1{fill-rule:evenodd;clip-rule:evenodd;fill:url(#SVGID_2_);}
	.st2{fill-rule:evenodd;clip-rule:evenodd;fill:url(#SVGID_3_);}
	.st3{fill-rule:evenodd;clip-rule:evenodd;fill:url(#SVGID_4_);}
	.st4{fill-rule:evenodd;clip-rule:evenodd;fill:#AA1823;}
	.st5{fill-rule:evenodd;clip-rule:evenodd;fill:#CE1A1F;}
	.st6{fill-rule:evenodd;clip-rule:evenodd;fill:#911928;}
	.st7{fill-rule:evenodd;clip-rule:evenodd;fill:#D33D48;}
	.st8{fill-rule:evenodd;clip-rule:evenodd;fill:#010005;}
	.st9{fill-rule:evenodd;clip-rule:evenodd;fill:url(#SVGID_5_);}
	.st10{fill-rule:evenodd;clip-rule:evenodd;fill:url(#SVGID_6_);}
	.st11{fill:#CE1A1F;}
</style>
<linearGradient id="SVGID_1_" gradientUnits="userSpaceOnUse" x1="700.3602" y1="231.9963" x2="700.3602" y2="307.7534">
	<stop  offset="0" style="stop-color:#010005"/>
	<stop  offset="0.5" style="stop-color:#010005"/>
	<stop  offset="1" style="stop-color:#CE1A1F"/>
</linearGradient>
<path class="st0" d="M740.39,256.59c0,7.5-1.71,13.47-5.13,17.92c-3.42,4.45-8.51,6.67-15.27,6.67h-16.32v-33.41h-10.81v59.99
	h-32.53V232h59.66c3.53,0,6.58,0.59,9.15,1.76c2.57,1.18,4.69,2.85,6.34,5.02c1.65,2.17,2.89,4.76,3.69,7.77
	C739.98,249.57,740.39,252.91,740.39,256.59z"/>
<linearGradient id="SVGID_2_" gradientUnits="userSpaceOnUse" x1="610.1021" y1="231.9963" x2="610.1021" y2="307.7534">
	<stop  offset="0" style="stop-color:#010005"/>
	<stop  offset="0.5" style="stop-color:#010005"/>
	<stop  offset="1" style="stop-color:#CE1A1F"/>
</linearGradient>
<path class="st1" d="M650.74,286.03c0,3.31-0.51,6.3-1.54,8.99c-1.03,2.68-2.48,4.96-4.36,6.84c-1.87,1.87-4.15,3.33-6.84,4.36
	c-2.68,1.03-5.64,1.54-8.88,1.54h-37.93c-3.31,0-6.29-0.51-8.93-1.54c-2.65-1.03-4.93-2.48-6.84-4.36
	c-1.91-1.87-3.38-4.15-4.41-6.84c-1.03-2.68-1.54-5.68-1.54-8.99v-5.79h35.73v11.74H616v-44.22h-10.81v11.74h-35.73v-5.9
	c0-3.31,0.51-6.29,1.54-8.93c1.03-2.65,2.5-4.91,4.41-6.78c1.91-1.87,4.19-3.33,6.84-4.36c2.65-1.03,5.62-1.54,8.93-1.54h37.93
	c3.23,0,6.19,0.51,8.88,1.54c2.68,1.03,4.96,2.48,6.84,4.36c1.87,1.87,3.33,4.14,4.36,6.78c1.03,2.65,1.54,5.62,1.54,8.93V286.03
	L650.74,286.03z M569.47,278.91h35.73v-9.04h-7.15v7.15h-7.15v-7.15h-7.15v7.15h-7.15v-7.15h-7.15V278.91L569.47,278.91z
	 M569.47,262.73h7.15v7.15h7.15v-7.15h7.15v7.15h7.15v-7.15h7.15v-1.89h-35.73V262.73z"/>
<linearGradient id="SVGID_3_" gradientUnits="userSpaceOnUse" x1="533.4078" y1="231.9963" x2="533.4078" y2="307.7534">
	<stop  offset="0" style="stop-color:#010005"/>
	<stop  offset="0.5" style="stop-color:#010005"/>
	<stop  offset="1" style="stop-color:#CE1A1F"/>
</linearGradient>
<polygon class="st2" points="565.94,247.77 549.62,247.77 549.62,307.75 517.09,307.75 517.09,247.77 500.88,247.77 500.88,232 
	565.94,232 "/>
<linearGradient id="SVGID_4_" gradientUnits="userSpaceOnUse" x1="768.2879" y1="231.9963" x2="768.2879" y2="307.7534">
	<stop  offset="0" style="stop-color:#010005"/>
	<stop  offset="0.5" style="stop-color:#010005"/>
	<stop  offset="1" style="stop-color:#CE1A1F"/>
</linearGradient>
<polygon class="st3" points="792.66,307.75 760.13,307.75 760.13,247.77 743.92,247.77 743.92,232 792.66,232 "/>
<polygon class="st4" points="817.61,307.75 782.24,307.75 782.24,294.19 792.66,294.19 792.66,289.45 811.93,289.45 817.61,298.92 
	"/>
<rect x="785.08" y="298.92" class="st5" width="32.53" height="8.83"/>
<polygon class="st4" points="735.17,291.98 740.85,282.51 760.13,282.51 760.13,287.25 770.54,287.25 770.54,307.75 767.7,307.75 
	735.17,307.75 "/>
<rect x="735.17" y="291.98" class="st5" width="32.53" height="15.77"/>
<polygon class="st6" points="767.7,291.98 770.54,287.25 770.54,307.75 767.7,307.75 "/>
<polygon class="st7" points="785.08,298.92 782.24,294.19 782.24,307.75 785.08,307.75 "/>
<path class="st8" d="M571.82,331.4v-15.77h6.03v5.95l6.14-5.95h8.19l-6.54,5.63l6.95,10.14h-7.63l-4.35-6.63l-2.76,2.65v3.98H571.82
	L571.82,331.4z M599.59,331.4l6.3-15.77h7.97l6.3,15.77h-6.59l-0.66-1.47h-6.44l-0.59,1.47H599.59L599.59,331.4z M607.57,325.92
	h4.17l-2.04-5.78L607.57,325.92L607.57,325.92z M628.12,331.4v-15.77h11.68c2.06,0,3.42,0.09,4.08,0.26
	c2.02,0.52,3.03,1.95,3.03,4.29c0,1.34-0.3,2.33-0.91,2.99c-0.25,0.27-0.53,0.48-0.85,0.63c-0.31,0.15-0.76,0.29-1.34,0.42
	c0.87,0.26,1.46,0.54,1.78,0.82c0.34,0.31,0.58,0.76,0.71,1.34c0.13,0.58,0.22,1.59,0.26,3.02c0.02,0.6,0.06,1.01,0.11,1.23
	c0.04,0.21,0.16,0.47,0.33,0.77h-6.32c-0.07-0.48-0.14-1.17-0.19-2.08c-0.04-0.93-0.1-1.58-0.16-1.96
	c-0.06-0.38-0.17-0.69-0.32-0.95c-0.15-0.26-0.4-0.43-0.74-0.52c-0.34-0.1-0.91-0.15-1.69-0.15h-3.43v5.65H628.12L628.12,331.4z
	 M634.15,322.42h4.01c0.86,0,1.43-0.09,1.69-0.26c0.41-0.27,0.61-0.71,0.61-1.34c0-0.56-0.17-0.95-0.49-1.17
	c-0.33-0.22-0.92-0.33-1.77-0.33h-4.05V322.42L634.15,322.42z M660.66,331.4v-11.75h-6v-4.02h18.11v4.02h-6.07v11.75H660.66
	L660.66,331.4z M681.12,331.4v-15.77h6.03v15.77H681.12L681.12,331.4z M696.87,331.4v-15.77h6.82l4.96,5.98
	c0.47,0.57,0.84,1.06,1.09,1.48c0.26,0.42,0.68,1.23,1.26,2.41h0.21c-0.55-1.49-0.82-3.11-0.82-4.84v-5.04h6.03v15.77h-6.63
	l-5.19-6.17c-0.43-0.52-0.81-1.04-1.12-1.58c-0.31-0.54-0.68-1.29-1.1-2.24h-0.19c0.28,0.82,0.46,1.52,0.56,2.13
	c0.1,0.6,0.15,1.34,0.15,2.21v5.65H696.87L696.87,331.4z M746.67,322.63v8.72h-2.6l-0.8-1.69c-0.73,0.69-1.52,1.19-2.39,1.49
	c-1.46,0.5-3.2,0.74-5.21,0.74c-3.21,0-5.75-0.69-7.61-2.06c-0.91-0.67-1.6-1.53-2.06-2.6c-0.5-1.13-0.75-2.35-0.75-3.66
	c0-1.86,0.46-3.46,1.39-4.81c0.94-1.36,2.37-2.34,4.29-2.94c1.48-0.46,3.16-0.69,5.05-0.69c1.89,0,3.6,0.22,5.14,0.66
	c2.16,0.61,3.73,1.66,4.71,3.14c0.41,0.61,0.69,1.37,0.83,2.28h-7.17c-0.51-1.37-1.66-2.06-3.45-2.06c-1.36,0-2.4,0.39-3.11,1.17
	c-0.69,0.77-1.04,1.79-1.04,3.06c0,1.31,0.36,2.36,1.07,3.16c0.79,0.88,2.02,1.32,3.72,1.32c1.02,0,1.83-0.15,2.41-0.45
	c0.58-0.3,0.98-0.75,1.2-1.37h-2.66v-3.43H746.67z"/>
<linearGradient id="SVGID_5_" gradientUnits="userSpaceOnUse" x1="553.4332" y1="323.5244" x2="500.8768" y2="323.5125">
	<stop  offset="0" style="stop-color:#010005"/>
	<stop  offset="1" style="stop-color:#CE1A1F"/>
</linearGradient>
<path class="st9" d="M563.95,315.64h-5.26v5.26h-5.26v-5.26h-5.26v5.26h-5.26v-5.26h-5.26v5.26h-5.26v-5.26h-5.26v5.26h-5.26v-5.26
	h-5.26v5.26h-5.26v-5.26h-5.26v5.26h-5.26v5.26h5.26v5.26h5.26v-5.26h5.26v5.26h5.26v-5.26h5.26v5.26h5.26v-5.26h5.26v5.26h5.26
	v-5.26h5.26v5.26h5.26v-5.26h5.26v5.26h5.26v-5.26h-5.26v-5.26h5.26V315.64L563.95,315.64z M506.13,320.89h5.26v5.26h-5.26V320.89
	L506.13,320.89z M516.64,320.89h5.26v5.26h-5.26V320.89L516.64,320.89z M527.16,320.89h5.26v5.26h-5.26V320.89L527.16,320.89z
	 M537.67,320.89h5.26v5.26h-5.26V320.89L537.67,320.89z M548.18,320.89h5.26v5.26h-5.26V320.89z"/>
<linearGradient id="SVGID_6_" gradientUnits="userSpaceOnUse" x1="765.0569" y1="323.5244" x2="817.6133" y2="323.5125">
	<stop  offset="0" style="stop-color:#010005"/>
	<stop  offset="1" style="stop-color:#CE1A1F"/>
</linearGradient>
<path class="st10" d="M754.54,315.64h5.26v5.26h5.26v-5.26h5.26v5.26h5.26v-5.26h5.26v5.26h5.26v-5.26h5.26v5.26h5.26v-5.26h5.26
	v5.26h5.26v-5.26h5.26v5.26h5.26v5.26h-5.26v5.26h-5.26v-5.26h-5.26v5.26h-5.26v-5.26h-5.26v5.26h-5.26v-5.26h-5.26v5.26h-5.26
	v-5.26h-5.26v5.26h-5.26v-5.26h-5.26v5.26h-5.26v-5.26h5.26v-5.26h-5.26V315.64L754.54,315.64z M812.36,320.89h-5.26v5.26h5.26
	V320.89L812.36,320.89z M801.85,320.89h-5.26v5.26h5.26V320.89L801.85,320.89z M791.33,320.89h-5.26v5.26h5.26V320.89L791.33,320.89
	z M780.82,320.89h-5.26v5.26h5.26V320.89L780.82,320.89z M770.31,320.89h-5.26v5.26h5.26V320.89z"/>
<g>
	<g>
		<polygon class="st11" points="358.31,212.06 346.03,281.95 246.51,281.95 258.8,212.06 		"/>
	</g>
	<g>
		<polygon class="st11" points="368.79,281.95 356.51,351.84 333.72,351.84 346.02,281.95 		"/>
	</g>
	<g>
		<polygon class="st11" points="246.51,281.95 234.23,351.84 91.91,351.84 104.21,281.95 		"/>
	</g>
	<g>
		<polygon class="st11" points="379.75,281.95 367.47,351.84 360.99,351.84 373.28,281.95 		"/>
	</g>
	<g>
		<polygon class="st11" points="390.58,281.95 378.3,351.84 373.99,351.84 386.28,281.95 		"/>
	</g>
	<g>
		<polygon class="st11" points="404.18,281.95 391.9,351.84 388.52,351.84 400.81,281.95 		"/>
	</g>
	<g>
		<polygon class="st11" points="417.87,281.95 405.59,351.84 403.12,351.84 415.41,281.95 		"/>
	</g>
	<g>
		<polygon class="st11" points="435.12,281.95 422.84,351.84 421.2,351.84 433.49,281.95 		"/>
	</g>
</g>
</svg>
