<svg width="183" height="41" viewBox="0 0 183 41" fill="none" xmlns="http://www.w3.org/2000/svg">
<path d="M2.66814 17.0042V21.4623H0.380859V10.3721H19.1806C20.2352 10.3721 20.7593 11.1259 20.7593 12.6367V14.4905C20.7593 16.1663 20.2352 17.0075 19.1806 17.0075H11.1314H2.66814V17.0042ZM2.66814 12.9343V14.6264H17.9447C18.2812 14.4128 18.4494 14.1475 18.4494 13.8273C18.4494 13.507 18.265 13.2093 17.8994 12.9376H2.66814V12.9343Z" fill="#0B0B0B"/>
<path d="M34.186 10.3947V18.9033H40.2681L40.9087 18.1495V10.3721H43.2445V18.7642C43.2445 20.5629 42.6622 21.4623 41.5072 21.4623H24.5127C23.4289 21.4623 22.8887 20.5629 22.8887 18.7642V10.3721H25.2665V18.1495C25.4509 18.6056 25.6483 18.858 25.8618 18.9033H31.8566V10.3721L34.186 10.3947Z" fill="#0B0B0B"/>
<path d="M63.303 21.4623L61.4945 17.0042H47.6349V21.4623H45.3477V10.3721H64.1474C65.202 10.3721 65.7261 11.1259 65.7261 12.6367V14.4905C65.7261 16.1663 65.202 17.0075 64.1474 17.0075H63.9662L65.7261 21.4656H63.303V21.4623ZM47.6349 12.9343V14.5811H62.8662C63.248 14.3967 63.4389 14.1314 63.4389 13.782C63.4389 13.6299 63.3936 13.4811 63.3127 13.3355C63.2253 13.1899 63.0959 13.0573 62.9115 12.9343H47.6349Z" fill="#0B0B0B"/>
<path d="M67.6318 32.2649L65.8265 27.8068H51.967V32.2649H49.6797V21.1714H68.4794C69.5308 21.1714 70.0582 21.9252 70.0582 23.436V25.2898C70.0582 26.9656 69.5308 27.8068 68.4794 27.8068H68.2982L70.0582 32.2649H67.6318ZM51.967 23.7337V25.3804H67.1983C67.58 25.196 67.7709 24.9307 67.7709 24.578C67.7709 24.426 67.7288 24.2772 67.6447 24.1316C67.5638 23.986 67.428 23.8534 67.2468 23.7304H51.967V23.7337Z" fill="#0B0B0B"/>
<path d="M90.0704 32.2647V27.8066H74.425V32.2647H72.1377V23.3679C72.1539 21.9347 72.885 21.2197 74.3344 21.2197H90.5751C91.8692 21.2197 92.5194 21.9897 92.5194 23.5297V32.2647H90.0704ZM90.093 25.3802V24.442C89.8601 24.0602 89.6886 23.8564 89.5657 23.8241H74.9717C74.8197 23.8241 74.6353 24.0214 74.4217 24.4193V25.3802H90.093Z" fill="#0B0B0B"/>
<path d="M96.3599 32.265C95.1855 32.265 94.5967 31.3753 94.5967 29.5895V23.5526C94.5967 22.0127 95.1855 21.2427 96.3599 21.2427H114.956V23.7823H97.3434C97.1137 24.1802 96.9907 24.5135 96.9778 24.7884V28.7677L97.2075 29.4536H114.956V32.265H96.3599Z" fill="#0B0B0B"/>
<path d="M117.062 29.4989H126.026V23.7338H117.062V21.2168H137.417V23.7338H128.362V29.4957H137.417V32.2423H117.062V29.4989Z" fill="#0B0B0B"/>
<path d="M157.59 24.465C157.347 24.0541 157.134 23.8083 156.949 23.7338H142.54C142.326 23.7791 142.129 24.0315 141.944 24.4876V32.2618H139.566V23.873C139.566 22.0742 140.107 21.1748 141.194 21.1748H158.185C159.343 21.1748 159.925 22.0742 159.925 23.873V32.2651H157.59V24.465Z" fill="#0B0B0B"/>
<path d="M169.573 25.4258H182.381V29.5669C182.381 31.3657 181.799 32.2651 180.641 32.2651H163.649C162.566 32.2651 162.025 31.3657 162.025 29.5669V23.5074C162.025 21.9513 162.566 21.1748 163.649 21.1748H182.381V23.6918H165.021C164.61 23.7209 164.403 24.0444 164.403 24.6526V28.9522C164.588 29.4084 164.791 29.6381 165.021 29.6381H179.431L180.049 28.9522V27.7584H169.573V25.4258Z" fill="#0B0B0B"/>
<path d="M145.037 40.2007H143.904V36.0629H139.56V34.8433H149.433V36.0629H145.04V40.2007H145.037Z" fill="#0B0B0B"/>
<path d="M150.484 40.2003V34.8428H160.345V36.0624H151.604V36.8842H160.345V38.0391H151.604V38.8609H160.345V40.2035H150.484V40.2003Z" fill="#0B0B0B"/>
<path d="M170.084 40.2003V38.0359H162.497V40.2003H161.388V35.8845C161.394 35.1889 161.75 34.8428 162.452 34.8428H170.327C170.954 34.8428 171.271 35.2148 171.271 35.9622V40.2003H170.084ZM170.097 36.8615V36.4054C169.987 36.221 169.903 36.1207 169.841 36.1045H162.766C162.691 36.1045 162.601 36.2016 162.501 36.3957V36.8615H170.097Z" fill="#0B0B0B"/>
<path d="M176.632 40.2004V36.0626H173.723C173.616 36.0853 173.523 36.2082 173.435 36.4282V40.2004H172.28V36.1273C172.28 35.2538 172.542 34.8203 173.07 34.8203H181.31C181.873 34.8203 182.154 35.2571 182.154 36.1273V40.2004H181.025V36.4282C180.899 36.2147 180.795 36.0917 180.711 36.0626H177.761V40.2004H176.632Z" fill="#0B0B0B"/>
<path d="M172.281 18.3986C171.67 18.46 170.761 18.4406 170.043 18.4956C169.315 16.781 168.781 15.1666 167.513 13.921C166.105 12.5429 163.692 11.4332 161.573 11.1938C159.677 10.9803 158.147 11.472 156.61 12.1643C153.808 13.4261 152.32 15.3381 151.353 18.4924C150.586 18.4503 149.667 18.4406 149.014 18.3953C149.273 15.956 150.46 14.4516 151.547 12.847C148.92 7.71594 144.76 3.59754 138.697 2.23552C138.098 3.75283 137.558 6.10481 137.432 8.17534C137.361 9.33677 137.597 11.1841 136.167 10.7053C135.122 10.3559 135.886 6.16628 136.07 5.1569C136.468 2.94726 136.934 1.53672 137.626 0.291168C137.684 0.152054 137.778 0.0517631 137.92 0C142.019 0.0970559 145.219 2.29375 147.655 4.2834C150.069 6.25363 151.955 8.73503 153.401 11.2908C155.536 9.69264 158.351 8.6865 161.871 8.95178C167.267 9.36589 171.492 13.2837 172.281 18.3986Z" fill="#D41E3E"/>
<path d="M142.297 17.1333C142.74 17.3177 143.633 17.6445 143.853 18.2042C143.87 18.5989 140.113 18.5924 139.279 18.4954C138.674 18.4209 137.917 18.1751 137.234 18.0068C132.902 16.9619 127.393 16.3731 122.245 15.9622C119.305 15.7293 115.937 15.781 113.481 14.8914C112.469 14.5225 111.398 13.7461 110.463 13.0441C109.444 12.2806 108.373 11.3682 107.347 11.2906C106.241 11.2065 105.4 11.7144 104.523 11.8762C103.653 11.2194 102.944 10.6565 101.993 10.2197C103.97 9.66975 107.192 8.45655 109.586 9.63416C110.803 10.2327 111.598 11.1515 112.702 11.8729C113.718 12.5329 114.963 13.1088 116.597 13.332C119.712 13.7623 123.096 13.814 126.526 14.1117C132.035 14.5937 137.907 15.3119 142.297 17.1333Z" fill="#D41E3E"/>
<path d="M106.276 18.3985C105.658 18.4762 104.756 18.46 104.034 18.4956C103.352 16.8747 102.75 15.1407 101.504 13.921C100.123 12.5655 97.758 11.4364 95.5678 11.1937C93.6493 10.9802 92.1094 11.4849 90.6018 12.1643C87.7872 13.4293 86.3184 15.3348 85.3446 18.4923C84.5746 18.4503 83.6397 18.3953 83.0088 18.3953C83.9082 13.4487 87.8422 9.4338 93.3291 8.95175C97.4863 8.58618 100.476 9.93849 102.773 11.9702C104.558 13.5554 106.06 15.7845 106.276 18.3985Z" fill="#D41E3E"/>
<path d="M83.106 14.7979C83.1675 14.7979 83.2354 14.7979 83.3002 14.7979C82.8278 15.5905 82.5431 16.574 82.1323 17.4281C80.9255 17.5154 79.5538 18.308 78.1433 18.4989C76.4351 18.5183 71.9673 18.7027 72.0093 18.3048C71.9511 17.6707 72.6402 17.6836 73.0802 17.5251C76.1018 16.6031 79.9194 15.7684 83.009 14.7979C83.0446 14.7979 83.0705 14.7979 83.106 14.7979Z" fill="#D41E3E"/>
</svg>
