<?xml version="1.0" encoding="utf-8"?>
<!-- Generator: Adobe Illustrator 23.0.3, SVG Export Plug-In . SVG Version: 6.00 Build 0)  -->
<svg version="1.1" id="Ebene_1" xmlns="http://www.w3.org/2000/svg" xmlns:xlink="http://www.w3.org/1999/xlink" x="0px" y="0px"
	 viewBox="0 0 678.5 73.7" style="enable-background:new 0 0 678.5 73.7;" xml:space="preserve">
<style type="text/css">
	.st0{fill:#0D68B0;}
	.st1{fill-rule:evenodd;clip-rule:evenodd;fill:#0D68B0;}
</style>
<title>boellhoff-logo</title>
<polygon class="st0" points="204.7,70.4 263.4,70.4 263.4,54.3 228.4,54.3 228.4,3.7 204.7,3.7 204.7,70.4 "/>
<polygon class="st0" points="345.8,70.4 369.4,70.4 369.4,45.8 398.8,45.8 398.8,70.4 422.2,70.4 422.2,3.7 398.8,3.7 398.8,27.3 
	369.4,27.3 369.4,3.7 345.8,3.7 345.8,70.4 "/>
<polygon class="st0" points="534.8,70.4 558.2,70.4 558.2,45.9 597.2,45.9 597.2,30.2 558.2,30.2 558.2,19.7 600.6,19.7 600.6,3.7 
	534.8,3.7 534.8,70.4 "/>
<polygon class="st0" points="274.7,70.4 333.3,70.4 333.3,54.3 298.3,54.3 298.3,3.7 274.7,3.7 274.7,70.4 "/>
<polygon class="st0" points="612.7,70.4 636.2,70.4 636.2,45.9 675.1,45.9 675.1,30.2 636.2,30.2 636.2,19.7 678.5,19.7 678.5,3.7 
	612.7,3.7 612.7,70.4 "/>
<path class="st1" d="M24.8,19h20.9c5.5,0,8.2,0.7,8.2,4.8c0,4.3-2.7,5.3-8.2,5.3H24.8V19z M0,70.4h59.1C73.3,70.4,81,63.2,81,51
	c0-7.4-3.4-12.1-10.9-16.6c6.1-3.1,8-6.7,8-13.4c0-5.9-3.8-17.3-20.2-17.3H0V70.4z M24.8,44.3h22.3c6.3,0,9.3,0.7,9.3,5.2
	c0,5.1-3.1,5.5-9.3,5.5H24.8V44.3z"/>
<path class="st1" d="M459.7,37.1c0-14.8,11.1-21.3,18.7-21.3s18.8,6.5,18.8,21.3S486,58.2,478.5,58.2S459.7,51.9,459.7,37.1
	L459.7,37.1z M433.5,36.8c0,20.4,18.7,36.9,45,36.9s45-16.5,45-36.9S504.8,0,478.5,0S433.5,16.5,433.5,36.8L433.5,36.8z"/>
<path class="st1" d="M85.6,16.8V3.7h20.2v8c8-7.2,19.7-11.7,33.5-11.7c14,0,25.9,4.7,33.9,12.1V3.7h20.2v13.1h-16
	c4.5,5.7,6.9,12.8,6.9,20c0,20.4-18.7,36.9-45,36.9s-45-16.5-45-36.9c0-7.2,2.4-14.3,6.9-20L85.6,16.8z M120.6,37.1
	c0-14.8,11.1-21.3,18.8-21.3s18.7,6.5,18.7,21.3s-11.2,21.1-18.7,21.1S120.6,51.9,120.6,37.1z"/>
</svg>
