<?xml version="1.0" encoding="utf-8"?>
<!-- Generator: Adobe Illustrator 24.0.1, SVG Export Plug-In . SVG Version: 6.00 Build 0)  -->
<svg version="1.1" id="Layer_1" xmlns="http://www.w3.org/2000/svg" xmlns:xlink="http://www.w3.org/1999/xlink" x="0px" y="0px"
	 viewBox="0 0 1280 1024" style="enable-background:new 0 0 1280 1024;" xml:space="preserve">
<style type="text/css">
	.st0{fill:#010101;}
	.st1{fill:#030303;}
</style>
<g>
	<path class="st0" d="M374.67,414.21c0-24.26,0-48.52,0-72.78c0-4.77-0.4-5.15-5.19-5.14c-13.47,0.03-26.94,0.06-40.4,0.09
		c-3.8,0.01-4.12-0.31-4.12-4.11c0-9.9-0.01-19.8,0-29.7c0-3.09,0.47-3.59,3.54-3.59c45.04-0.01,90.08-0.01,135.13,0
		c3.23,0,3.71,0.5,3.71,3.72c0.01,9.99,0.01,19.98,0,29.97c0,3.38-0.3,3.69-3.65,3.69c-13.2,0-26.4-0.01-39.6-0.02
		c-6.16,0-6.17,0-6.16,6.05c0.02,47.72,0.05,95.44,0.07,143.15c0,0.8,0,1.61-0.01,2.41c-0.01,2.38-1.09,3.61-3.58,3.61
		c-12.22-0.04-24.44-0.06-36.65-0.02c-2.7,0.01-3.27-1.45-3.25-3.75c0.07-12.4,0.09-24.79,0.1-37.19c0.01-12.13,0-24.26,0-36.39
		C374.63,414.21,374.65,414.21,374.67,414.21z"/>
	<path class="st0" d="M552.01,423.92c0,9.1-0.02,18.19,0.02,27.29c0.01,1.87,0.16,3.74,0.34,5.6c0.26,2.71,1.65,4.71,4.14,5.77
		c1.32,0.56,1.89,1.24,1.87,2.76c-0.09,6.87-0.11,13.74-0.02,20.6c0.03,2.36-0.99,3.12-3.19,3.18
		c-13.09,0.34-24.61-2.73-32.08-14.65c-0.81-1.29-1.27-0.63-1.97-0.02c-3.16,2.75-6.34,5.48-9.83,7.81
		c-9.83,6.59-20.51,9.83-32.39,7.84c-14.09-2.36-22.94-10.72-26.13-24.46c-4.25-18.31,0.84-36.3,17.76-48.25
		c6.16-4.35,12.94-7.44,20.05-9.84c6.85-2.32,13.89-3.84,21.04-4.84c5.1-0.71,6.26-2.15,5.78-7.26c-0.12-1.33-0.22-2.67-0.49-3.98
		c-1.98-9.68-8.92-14.37-19.05-13.15c-9.39,1.13-17.52,5.09-25,10.62c-3.6,2.66-3.84,2.59-6.59-0.9c-3.58-4.55-7.2-9.08-10.84-13.58
		c-2.5-3.09-2.48-3.61,0.66-5.88c14.98-10.8,31.78-15.19,50.1-14.25c7.59,0.39,15.09,1.34,22.15,4.39
		c13.53,5.84,21.12,16.22,23,30.72C552.81,400.89,551.73,412.43,552.01,423.92z M517.37,433.62c0-2.94-0.05-5.87,0.02-8.81
		c0.04-1.97-0.58-3.19-2.77-2.76c-7.75,1.51-15.15,3.85-21.33,9.07c-4.98,4.2-7.97,9.42-8.64,15.98
		c-1.11,10.88,7.69,18.95,18.26,16.6c6.24-1.39,9.85-5.67,11.99-11.41C517.16,446.25,517.53,439.98,517.37,433.62z"/>
	<path class="st1" d="M608.41,347c13.72-0.07,25.45,3.4,36.98,7.81c5.45,2.09,5.38,2.02,6.66-3.73c2.53-11.4,1.86-22.84,0.75-34.32
		c-0.76-7.81-1.42-15.65,0.44-23.42c4.34-18.11,19.04-28.09,37.99-25.8c1.86,0.22,3.7,0.57,5.56,0.76c2.5,0.25,3.4,1.52,2.97,3.98
		c-1.19,6.75-1.89,13.62-3.54,20.25c-3.33,13.33-2.41,26.67-1.25,40.1c1.35,15.63,2.4,31.29,3.56,46.93
		c1.36,18.22,2.72,36.45,4.07,54.67c1.03,13.96,2.02,27.92,3.08,41.88c0.16,2.06-0.64,3.36-2.47,4.26
		c-16.99,8.42-34.64,14.84-53.51,17.5c-2.77,0.39-5.54,0.19-8.2-0.66c-6.12-1.96-12.08-4.44-17.3-8.17
		c-3.85-2.74-7.93-4.21-12.48-4.98c-7.7-1.31-15.07-3.55-21.28-8.59c-2.09-1.7-3.82-3.71-5.39-5.9c-3.62-5.05-4.05-10.37-1.25-15.85
		c1.22-2.38,0.88-3.73-1.44-5.19c-4.66-2.93-8.84-6.41-9.82-12.35c-0.66-4.05,0.42-7.83,2.12-11.38c1.26-2.63,1.03-4.38-1.07-6.56
		c-7.93-8.26-7.55-18.62,0.97-26.37c2.4-2.18,2.97-4.23,2.02-7.28c-1.92-6.11-1.78-12.32,0.21-18.41
		c3.67-11.26,12.04-16.72,23.25-18.56C603.19,347.11,606.4,346.95,608.41,347z M600.64,367.37c4.31,1.62,8.47,3.59,13,4.66
		c5.25,1.23,10.64,0.88,15.91,1.81c16.36,2.89,28.5,16.5,29.55,33.05c0.16,2.52-0.78,3.66-3.16,3.89c-1.01,0.1-2.07,0.12-3.08,0.9
		c4.26,5.21,6.85,10.95,7.88,17.43c0.96,6.07,1.08,6.1-5.05,7.1c-1.63,0.27-1.69,0.8-0.87,2.05c3.53,5.42,4.87,11.59,5.99,17.83
		c0.35,1.93-0.4,2.83-2.38,2.9c-3.15,0.12-6.29,0.36-9.52,0.56c1.3,3.17,2.52,6.01,3.63,8.9c1.13,2.92,1.71,5.99,2.11,9.08
		c0.62,4.86,0.09,5.48-4.8,5.54c-5.44,0.06-10.88,0.03-16.32,0.09c-0.7,0.01-1.76-0.52-2.03,0.63c-0.24,1.05,0.84,1.24,1.48,1.61
		c1.99,1.17,3.98,2.37,6.06,3.37c2.34,1.12,4.83,1.9,7.48,1.58c16.08-1.91,31.25-6.68,45.56-14.28c2.46-1.31,3.39-3.1,3.17-5.84
		c-0.81-9.86-1.52-19.73-2.25-29.6c-1.55-21.16-3.09-42.32-4.62-63.48c-1.39-19.29-2.79-38.59-4.13-57.88
		c-0.28-3.99-0.66-7.95,0.16-11.98c1.78-8.72,3.31-17.49,4.91-26.25c0.59-3.2,0.2-3.64-2.97-3.64c-13.69-0.02-23.97,9.82-24.8,23.57
		c-0.45,7.38,1.05,14.55,1.87,21.8c1.66,14.67,0.38,28.98-5.04,42.8c-1.3,3.32-1.94,3.63-5.16,2.28c-5.25-2.2-10.55-4.25-15.94-6.06
		c-11.19-3.75-22.47-6.9-34.47-6.15c-9.11,0.57-15.17,5.52-17.25,14.35c-1.74,7.4-0.31,14.14,4.3,20.17
		c6.5,8.48,15.32,12.48,25.81,13.08c10.08,0.59,20.14-0.42,30.21-0.72c2.81-0.08,3.11-0.64,2.3-3.29
		c-3-9.92-10.94-15.79-22.36-16.88c-4.97-0.47-9.99-0.14-14.93-0.99c-3.36-0.57-6.07-2.09-7.53-5.29c-1.25-2.75-2.31-5.57-2.89-8.55
		L600.64,367.37z M650.88,427.4c-1.24-4.97-3.48-9.16-6.69-12.82c-2.07-2.37-4.71-3.18-7.9-2.94c-7.54,0.56-15.19,1.81-22.64,0.89
		c-10.65-1.32-20.35-5.64-28.34-13.1c-1.82-1.69-3.06-1.56-4.67,0.09c-3.73,3.82-3.55,9.32,0.62,13.27
		c2.86,2.71,6.21,4.74,9.71,6.53c7.22,3.69,15.01,5.94,22.5,8.96c0.7,0.28,1.58,0.23,2.37,0.21c9.7-0.25,19.41-0.51,29.11-0.78
		C646.88,427.64,648.81,427.51,650.88,427.4z M581.69,431.35c-0.04,2,0.72,3.68,1.86,5.21c2.07,2.77,4.85,4.68,7.85,6.29
		c5.25,2.83,10.88,4.78,16.36,7.07c2.28,0.95,4.56,1.45,7,1.31c5.42-0.31,10.82,0.3,16.31-0.63c4.55-0.76,9.4-0.51,14.11,0.05
		c1.42,0.17,3.02,0.38,3.88-1.04c0.8-1.31,0.35-2.78-0.36-4.07c-0.9-1.63-1.94-3.19-2.81-4.84c-1.55-2.94-4.02-4.15-7.24-3.96
		c-2.58,0.15-5.16,0.29-7.72,0.57c-11.82,1.27-23.23,0.23-33.97-5.43c-3.52-1.86-7.28-3.28-10.92-4.91
		c-1.98-0.89-3.27-0.33-3.81,1.79C582.02,429.61,581.87,430.48,581.69,431.35z M643.94,474.41c-0.4-3.03-1.45-5.68-2.32-8.37
		c-1.48-4.54-3.16-5.85-7.98-6c-3.47-0.11-6.95,0.1-10.43,0.14c-2.41,0.03-4.81,0.07-7.22,0.02c-6.4-0.13-12.53-1.39-18.35-4.17
		c-3.27-1.56-5.14-0.99-5.51,1.52c-0.41,2.78-0.15,5.57,1.7,7.88c4.23,5.28,9.6,8.79,16.4,9.6
		C621.46,476.37,632.64,474.68,643.94,474.41z"/>
	<path class="st0" d="M782.65,429.42c-9.01,0-18.01-0.01-27.02,0c-3.55,0-3.97,0.44-3.78,4.07c0.22,4.09-0.34,8.23,0.37,12.29
		c1.77,10.16,9.24,16.78,19.74,18.02c11.08,1.31,21.37-1.47,31.45-5.59c6.8-2.78,6.16-3.37,7.48,4.26
		c0.98,5.7,1.83,11.43,2.82,17.13c0.3,1.72-0.28,2.67-1.89,3.26c-14.31,5.26-28.88,9.05-44.31,8.2c-6.8-0.38-13.45-1.53-19.82-3.97
		c-16.45-6.32-25.04-18.7-27.17-35.85c-2.02-16.24-2.48-32.53-1.08-48.84c0.54-6.21,1.1-12.44,2.84-18.46
		c4.74-16.41,17.95-27.41,35.06-29.35c9.03-1.03,18.06-1.06,26.73,1.84c16.29,5.44,25.72,16.99,28.4,33.86
		c1.73,10.88,0.77,21.89,0.94,32.85c0.1,6.37,0.03,6.36-6.43,6.34c-8.11-0.02-16.23,0-24.34,0
		C782.65,429.45,782.65,429.43,782.65,429.42z M768.09,409.9c0-0.02,0-0.03,0-0.05c4.18,0,8.37,0,12.55,0c3.33,0,3.31,0,3.29-3.46
		c-0.01-2.14,0.07-4.27,0.05-6.41c-0.05-4.63-0.25-9.25-1.95-13.65c-1.7-4.4-4.56-7.55-9.27-8.8c-9.76-2.58-17.96,2.52-20.18,12.56
		c-1.21,5.46-0.36,11.01-0.76,16.5c-0.18,2.44,0.75,3.39,3.19,3.33C759.36,409.83,763.73,409.9,768.09,409.9z"/>
	<path class="st0" d="M833.96,357.16c2.82,0,5.55,0,8.28,0c8.29,0,16.59,0.08,24.88-0.05c2.36-0.04,3.63,0.63,4.68,2.87
		c4.5,9.58,9.22,19.04,13.88,28.54c0.43,0.87,0.91,1.72,1.54,2.9c1.95-3.93,3.77-7.57,5.55-11.22c3.16-6.47,6.38-12.91,9.41-19.44
		c1.2-2.59,2.85-3.73,5.77-3.68c9.9,0.15,19.8,0.08,29.7,0.1c2.98,0,3.12,0.08,1.68,2.81c-3.95,7.47-8.02,14.87-12.05,22.3
		c-6.46,11.88-12.87,23.78-19.42,35.6c-1.56,2.82-1.5,5.22,0.1,7.99c11.02,19.01,21.94,38.08,32.89,57.13
		c0.49,0.85,0.93,1.72,1.39,2.58c0.74,1.38,0.12,1.99-1.23,2.16c-0.53,0.07-1.07,0.06-1.6,0.06c-9.72,0-19.44-0.07-29.16,0.03
		c-2.75,0.03-4.45-1-5.71-3.44c-5.23-10.11-10.58-20.15-15.9-30.22c-0.36-0.69-0.5-1.79-1.35-1.84c-1.05-0.06-1.19,1.09-1.6,1.85
		c-5.32,10.16-10.67,20.31-15.97,30.48c-1.1,2.11-2.67,3.16-5.11,3.14c-10.43-0.07-20.87-0.1-31.31-0.05
		c-2.36,0.01-2.32-0.82-1.33-2.51c11.56-19.93,23.07-39.89,34.67-59.8c1.48-2.54,1.4-4.71,0.02-7.23
		c-10.48-19.2-20.89-38.45-31.3-57.69C834.82,359.52,834.09,358.6,833.96,357.16z"/>
	<path class="st1" d="M873.08,728.62c-1.27,0-1.95,0-2.63,0c-28.18,0-56.36,0.15-84.54-0.05c-24.31-0.17-44.22-9.7-58.16-29.85
		c-21.94-31.69-11.35-74.66,22.68-93.7c10.55-5.9,21.88-8.99,33.94-9.03c28.89-0.09,57.78-0.03,86.68-0.03c0.5,0,1,0,1.98,0
		c-2.19,2.63-4.07,4.85-5.91,7.1c-0.84,1.03-1.97,0.64-2.99,0.65c-26.22,0.02-52.44-0.25-78.65,0.09
		c-25.94,0.33-45.2,12.23-55.82,35.99c-14.62,32.7,5.23,70.85,40.53,79.29c5.32,1.27,10.71,1.75,16.16,1.74
		c25.77-0.02,51.54,0.01,77.31-0.06c2.06-0.01,3.5,0.49,4.71,2.2C869.68,724.81,871.27,726.47,873.08,728.62z"/>
	<path class="st1" d="M551.16,596.02c-2.07,2.47-3.9,4.52-5.57,6.69c-0.9,1.17-2.04,0.89-3.16,0.89
		c-25.96,0.01-51.91-0.04-77.87,0.02c-21.52,0.05-39.04,8.43-51.33,26.24c-22.61,32.79-5.72,77.73,33.04,88.6
		c5.96,1.67,12.04,2.32,18.23,2.31c25.78-0.04,51.55,0,77.33-0.06c2.03,0,3.51,0.39,4.72,2.16c1.28,1.87,2.89,3.51,4.74,5.71
		c-1.28,0-1.95,0-2.62,0c-28.01,0-56.01,0.12-84.02-0.04c-24.73-0.14-44.94-9.71-59.01-30.34c-22.2-32.54-10.12-76.61,25.61-94.66
		c9.69-4.89,19.98-7.56,30.84-7.58c29.17-0.08,58.33-0.03,87.5-0.03C549.93,595.95,550.28,595.98,551.16,596.02z"/>
	<path class="st1" d="M564.46,728.69c0-23.13-0.45-45.61,0.12-68.06c0.61-23.91,12-42.13,32.23-54.56
		c35.16-21.6,82.16-7.65,99.37,29.23c3.62,7.76,5.78,15.95,5.84,24.5c0.16,22.73,0.05,45.46,0.05,68.91
		c-2.79-2.19-5.29-4.05-7.66-6.07c-0.69-0.59-0.29-1.71-0.29-2.58c-0.01-18.28-0.44-36.57,0.08-54.84
		c0.93-32.3-23.24-57.02-52.3-61.07c-32.67-4.55-62.24,17.05-68.34,46.74c-0.83,4.04-1.13,8.12-1.13,12.22
		c-0.01,18.81-0.05,37.63,0.05,56.44c0.01,2.22-0.6,3.65-2.44,4.83C568.21,725.58,566.57,727.05,564.46,728.69z"/>
	<path class="st1" d="M600.48,367.53c-0.11-0.12-0.22-0.23-0.31-0.35c-0.01-0.01,0.12-0.12,0.18-0.18c0.1,0.12,0.19,0.25,0.29,0.37
		C600.64,367.37,600.48,367.53,600.48,367.53z"/>
	<rect x="287" y="539" class="st0" width="693" height="6"/>
</g>
</svg>
