<svg width="19" height="20" viewBox="0 0 19 20" fill="none" xmlns="http://www.w3.org/2000/svg">
<path fill-rule="evenodd" clip-rule="evenodd" d="M11.5093 0L19 4.2804V15.5014L7.4907 19.1634L0 14.883V3.66205L11.5093 0ZM11.344 11.5226L8.55 12.4117V16.8324L16.3134 14.3616L11.344 11.5226ZM6.64999 13.0163L2.74077 14.2603L6.64999 16.4946V13.0163ZM17.1 6.13088L11.875 7.79341V10.7311L17.1 13.7168V6.13088ZM1.89997 5.99368V13.531L6.64999 12.0196V8.708L1.89997 5.99368ZM10.925 8.09565L8.55 8.85134V11.4151L10.925 10.6594V8.09565ZM10.925 2.17851L3.29923 4.60498L7.70925 7.12501L10.925 6.10181V2.17851ZM11.875 2.39694V5.79953L15.699 4.5828L11.875 2.39694Z" fill="#D41E3E"/>
</svg>
