<svg width="19" height="18" viewBox="0 0 19 18" fill="none" xmlns="http://www.w3.org/2000/svg">
<path d="M18.6378 2.83347C19.3513 4.49886 19.0113 6.48681 17.612 7.84116C16.0713 9.3323 13.7427 9.56559 11.9327 8.57701L10.6242 9.96016L11.5578 10.8674L12.1158 10.3274C12.4007 10.0509 12.8634 10.0509 13.1483 10.3274L17.673 14.7511C17.9586 15.0269 17.9586 15.4747 17.673 15.7505L15.6078 17.7493C15.3229 18.0257 14.8601 18.0257 14.5752 17.7493L10.0506 13.3255C9.76491 13.0497 9.76491 12.6019 10.0506 12.3261L10.5602 11.8329L9.67043 10.9696L3.41318 17.5858C2.84258 18.1381 1.91787 18.1381 1.34801 17.5858L0.831721 17.0861C0.261122 16.5339 0.261122 15.6389 0.831721 15.0874L7.96012 9.30927L3.22571 4.71486L1.7304 4.71414L0 2.02129L1.39265 0.67127L4.23821 2.35682L4.2568 3.77381L9.04627 8.42725L10.4397 7.29827C9.07751 5.50112 9.21961 2.96955 10.8979 1.3452C12.2906 -0.00266191 14.3334 -0.337468 16.0497 0.340064L12.9817 3.26836L15.5639 5.76752L18.6378 2.83347ZM2.54426 15.7923C2.25934 15.5165 1.79735 15.5165 1.51168 15.7923C1.22601 16.0687 1.22601 16.5159 1.51168 16.7924C1.79735 17.0681 2.25934 17.0681 2.54426 16.7924C2.82993 16.5152 2.82993 16.068 2.54426 15.7923Z" fill="#D41E3E"/>
</svg>
