<?xml version="1.0" encoding="utf-8"?>
<!-- Generator: Adobe Illustrator 26.5.2, SVG Export Plug-In . SVG Version: 6.00 Build 0)  -->
<svg version="1.1" id="Ebene_1" xmlns="http://www.w3.org/2000/svg" xmlns:xlink="http://www.w3.org/1999/xlink" x="0px" y="0px"
	 viewBox="0 0 1190.55 841.89" style="enable-background:new 0 0 1190.55 841.89;" xml:space="preserve">
<style type="text/css">
	.st0{fill:#005A9A;}
	.st1{fill:#FFFFFF;}
	.st2{fill:#AFDFF9;}
	.st3{fill:none;}
</style>
<g>
	<g>
		<rect x="771.69" y="382.58" class="st0" width="119.05" height="51.02"/>
	</g>
	<g>
		<g>
			<path class="st1" d="M854.6,412.98L854.6,412.98L854.6,412.98L854.6,412.98L854.6,412.98L854.6,412.98
				c-2.91-1.98-4.91-2.4-6.35-1.05c-1.35,1.27-0.56,3.63,0.56,5.26l0,0c1.2,1.57,3.21,3.05,4.83,2.16
				C855.37,418.4,855.59,416.36,854.6,412.98L854.6,412.98z M852.34,418.44c-0.76,0.6-2.83-1.37-3.01-1.63h0
				c-0.19-0.26-1.42-2.83-0.62-3.37c1.12-0.75,3.92,0.79,4.01,0.9C852.8,414.46,853.41,417.6,852.34,418.44z"/>
			<path class="st2" d="M857.21,411.09C857.21,411.09,857.21,411.09,857.21,411.09c-2.58-1.21-4.22-1.13-5.24-0.95
				c-0.09,0.02-0.15,0.05-0.13,0.08c0.02,0.02,0.04,0.03,0.13,0.06c1.36,0.51,2.64,1.18,3.6,1.99l0,0v0
				c0.48,1.16,0.72,2.58,0.78,4.04c0,0.1,0,0.12,0.02,0.14c0.02,0.03,0.08-0.02,0.12-0.1C856.98,415.45,857.56,413.91,857.21,411.09
				C857.21,411.09,857.21,411.09,857.21,411.09z"/>
			<path class="st1" d="M859.3,409.57L859.3,409.57c-1.04-0.65-2.85-0.73-4.03-0.39c-0.1,0.03-0.15,0.06-0.13,0.08
				c0.01,0.02,0.05,0.04,0.11,0.05c1.53,0.36,2.25,0.7,2.92,1.07c0.15,0.75,0.24,1.54,0.12,3.11c0,0.07,0,0.1,0.02,0.12
				c0.02,0.02,0.06-0.01,0.12-0.1C859.12,412.51,859.6,410.76,859.3,409.57L859.3,409.57L859.3,409.57L859.3,409.57z"/>
			<path class="st3" d="M863.37,406.62c0.82,1.13,0.57,2.7-0.56,3.51c-1.12,0.82-2.7,0.57-3.51-0.56c-0.82-1.13-0.57-2.7,0.56-3.51
				C860.98,405.24,862.55,405.49,863.37,406.62z"/>
		</g>
		<g>
			<path class="st1" d="M863.9,416L863.9,416L863.9,416L863.9,416L863.9,416L863.9,416c-2.79,2.15-3.8,3.93-2.96,5.71
				c0.79,1.67,3.28,1.66,5.17,1.09v0c1.87-0.66,3.89-2.11,3.54-3.92C869.29,416.95,867.42,416.11,863.9,416L863.9,416z
				 M868.39,419.84c0.34,0.91-2.17,2.26-2.48,2.36l0,0c-0.3,0.1-3.13,0.48-3.39-0.45c-0.37-1.3,1.97-3.49,2.1-3.53
				C864.75,418.17,867.93,418.57,868.39,419.84z"/>
			<path class="st2" d="M862.91,412.94L862.91,412.94c-1.95,2.08-2.38,3.66-2.52,4.69c-0.01,0.08,0.01,0.16,0.04,0.15
				c0.03-0.01,0.04-0.03,0.1-0.11c0.9-1.14,1.93-2.15,3-2.8c0,0,0,0,0,0s0,0,0,0c1.25-0.1,2.68,0.12,4.08,0.5
				c0.09,0.03,0.12,0.04,0.14,0.03c0.04-0.01,0.01-0.08-0.05-0.14C866.99,414.5,865.7,413.48,862.91,412.94L862.91,412.94z"/>
			<path class="st1" d="M862.11,410.49L862.11,410.49c-0.94,0.79-1.58,2.48-1.61,3.72c-0.01,0.11,0.01,0.16,0.04,0.15
				c0.02-0.01,0.05-0.04,0.08-0.09c0.82-1.34,1.36-1.93,1.92-2.45c0.76,0.09,1.54,0.25,3,0.85c0.06,0.02,0.1,0.03,0.12,0.02
				c0.03-0.01,0.01-0.06-0.06-0.14C864.84,411.57,863.33,410.57,862.11,410.49L862.11,410.49L862.11,410.49
				C862.11,410.49,862.11,410.49,862.11,410.49z"/>
		</g>
		<g>
			<path class="st1" d="M869.65,408.09L869.65,408.09L869.65,408.09L869.65,408.09L869.65,408.09L869.65,408.09
				c1.19,3.31,2.56,4.83,4.51,4.58c1.83-0.23,2.59-2.6,2.64-4.58v0c-0.05-1.98-0.8-4.35-2.64-4.58
				C872.21,403.26,870.84,404.78,869.65,408.09L869.65,408.09z M874.68,405.01c0.97-0.04,1.48,2.77,1.48,3.08l0,0
				c0,0.32-0.52,3.13-1.48,3.09c-1.35-0.05-2.71-2.95-2.71-3.09C871.98,407.96,873.34,405.06,874.68,405.01z"/>
			<path class="st2" d="M866.43,408.1L866.43,408.1c1.37,2.49,2.75,3.39,3.68,3.85c0.08,0.04,0.15,0.04,0.15,0.01
				c0-0.03-0.01-0.05-0.07-0.13c-0.8-1.21-1.45-2.51-1.74-3.72c0,0,0,0,0,0l0,0c0.29-1.22,0.94-2.51,1.74-3.72
				c0.06-0.08,0.07-0.1,0.07-0.13c0-0.04-0.07-0.03-0.15,0.01C869.18,404.7,867.8,405.6,866.43,408.1
				C866.43,408.09,866.43,408.09,866.43,408.1z"/>
			<path class="st1" d="M863.85,408.1L863.85,408.1c0.46,1.14,1.87,2.27,3.04,2.68c0.1,0.04,0.16,0.04,0.16,0.01
				c0-0.03-0.02-0.06-0.06-0.11c-1.02-1.19-1.41-1.89-1.74-2.59c0.32-0.7,0.71-1.39,1.74-2.58c0.04-0.05,0.06-0.08,0.06-0.11
				c0-0.03-0.05-0.03-0.15,0.01C865.72,405.83,864.31,406.96,863.85,408.1L863.85,408.1L863.85,408.1L863.85,408.1z"/>
		</g>
		<g>
			<path class="st1" d="M863.9,400.18L863.9,400.18L863.9,400.18L863.9,400.18L863.9,400.18L863.9,400.18
				c3.52-0.11,5.39-0.94,5.75-2.88c0.34-1.82-1.68-3.27-3.54-3.92h0c-1.9-0.57-4.38-0.58-5.17,1.09
				C860.1,396.26,861.12,398.03,863.9,400.18L863.9,400.18z M862.52,394.44c0.26-0.93,3.09-0.55,3.39-0.46h0
				c0.3,0.1,2.81,1.46,2.48,2.36c-0.47,1.27-3.64,1.66-3.77,1.63C864.49,397.93,862.16,395.74,862.52,394.44z"/>
			<path class="st2" d="M862.91,403.25C862.91,403.25,862.91,403.25,862.91,403.25c2.79-0.54,4.08-1.56,4.79-2.31
				c0.06-0.06,0.09-0.13,0.05-0.14c-0.03-0.01-0.05,0-0.14,0.03c-1.4,0.39-2.83,0.6-4.08,0.51c0,0,0,0,0,0s0,0,0,0
				c-1.07-0.65-2.1-1.67-3-2.8c-0.06-0.08-0.07-0.1-0.1-0.11c-0.04-0.01-0.05,0.06-0.04,0.15
				C860.53,399.59,860.96,401.17,862.91,403.25C862.91,403.24,862.91,403.25,862.91,403.25z"/>
			<path class="st1" d="M862.11,405.7L862.11,405.7c1.22-0.09,2.74-1.08,3.49-2.06c0.07-0.08,0.08-0.14,0.06-0.15
				c-0.02-0.01-0.06,0-0.12,0.03c-1.45,0.6-2.23,0.76-2.99,0.85c-0.56-0.52-1.1-1.11-1.92-2.45c-0.04-0.06-0.06-0.08-0.09-0.09
				c-0.03-0.01-0.04,0.04-0.04,0.15C860.53,403.22,861.17,404.92,862.11,405.7L862.11,405.7L862.11,405.7
				C862.11,405.7,862.11,405.7,862.11,405.7z"/>
		</g>
		<g>
			<path class="st1" d="M854.6,403.21L854.6,403.21L854.6,403.21L854.6,403.21L854.6,403.21L854.6,403.21
				c0.99-3.38,0.77-5.41-0.96-6.36c-1.62-0.89-3.63,0.58-4.83,2.16l0,0c-1.12,1.63-1.91,3.99-0.56,5.26
				C849.69,405.61,851.7,405.19,854.6,403.21L854.6,403.21z M848.72,402.74c-0.81-0.54,0.43-3.11,0.62-3.37v0
				c0.19-0.26,2.25-2.23,3.01-1.63c1.06,0.84,0.46,3.97,0.38,4.09C852.64,401.95,849.84,403.49,848.72,402.74z"/>
			<path class="st2" d="M857.21,405.1L857.21,405.1c0.35-2.82-0.22-4.36-0.71-5.27c-0.04-0.08-0.1-0.13-0.12-0.1
				c-0.02,0.02-0.02,0.05-0.02,0.14c-0.06,1.45-0.3,2.88-0.78,4.04c0,0,0,0,0,0s0,0,0,0c-0.95,0.81-2.23,1.48-3.6,1.99
				c-0.09,0.03-0.12,0.04-0.13,0.06c-0.02,0.03,0.04,0.07,0.13,0.08C852.99,406.23,854.63,406.31,857.21,405.1
				C857.21,405.1,857.21,405.1,857.21,405.1z"/>
			<path class="st1" d="M859.3,406.62L859.3,406.62c0.3-1.19-0.18-2.94-0.88-3.96c-0.06-0.09-0.1-0.12-0.12-0.1
				c-0.02,0.02-0.02,0.05-0.01,0.12c0.13,1.56,0.03,2.36-0.12,3.11c-0.67,0.37-1.39,0.71-2.92,1.07c-0.06,0.02-0.1,0.03-0.11,0.05
				c-0.02,0.02,0.03,0.06,0.13,0.08C856.45,407.35,858.26,407.27,859.3,406.62L859.3,406.62L859.3,406.62L859.3,406.62z"/>
		</g>
	</g>
	<g>
		<path class="st1" d="M810.52,412.74c-0.76-1.78-4.82-11.27-4.82-11.27h-3.56l7.79,18.22h1.23l7.68-18.22h-3.54
			C815.3,401.47,811.27,410.96,810.52,412.74z M825.98,416.46c0-0.93,0-14.99,0-14.99h-3.46v18.22h13.05v-3.23
			C835.57,416.46,826.87,416.46,825.98,416.46z"/>
		<path class="st1" d="M795.86,401.47h-2.39l-7.76,18.22h3.61c0,0,1.56-3.71,1.78-4.23h7.39c0.23,0.51,1.9,4.23,1.9,4.23h3.6
			L795.86,401.47z M797.06,412.28h-4.62c0.4-0.94,1.67-3.96,2.24-5.31C795.28,408.31,796.63,411.33,797.06,412.28z"/>
	</g>
</g>
</svg>
