<?xml version="1.0" encoding="utf-8"?>
<!-- Generator: Adobe Illustrator 27.7.0, SVG Export Plug-In . SVG Version: 6.00 Build 0)  -->
<svg version="1.1" id="Warstwa_1" xmlns="http://www.w3.org/2000/svg" xmlns:xlink="http://www.w3.org/1999/xlink" x="0px" y="0px"
	 viewBox="0 0 264.67 74.25" style="enable-background:new 0 0 264.67 74.25;" xml:space="preserve">
<style type="text/css">
	.st0{fill:#E30613;}
</style>
<g id="logo_00000159453186136462320900000009904699093887007147_">
	<path class="st0" d="M90.43,23.82l-14.72-0.01l-1.12,1.95l-1.14-1.95l-4.71-0.01c-1.3,0-2.36,1.07-2.36,2.36v24.26h8.21V29.4h9.91
		v7.66h8.21V26.16C92.71,24.88,91.73,23.82,90.43,23.82"/>
	<path class="st0" d="M112.52,37.06h8.23l2.69-4.77v-5.92c0-1.4-1.15-2.55-2.56-2.55h-21.2c-1.41,0-2.57,1.15-2.57,2.55v21.5
		c0,1.41,1.16,2.56,2.57,2.56h21.2c1.41,0,2.56-1.16,2.56-2.56v-6.36h-8.21v3.34h-9.91V29.4h9.91v2.89L112.52,37.06z"/>
	<path class="st0" d="M151.89,23.82l-14.71-0.01l-1.12,1.95l-1.14-1.95l-4.71-0.01c-1.3,0-2.36,1.07-2.36,2.36v24.26h8.21V29.4h9.91
		v21.03h8.21V26.16C154.18,24.88,153.19,23.82,151.89,23.82"/>
	<path class="st0" d="M173.98,37.06h8.23l2.69-4.77v-5.92c0-1.4-1.15-2.55-2.56-2.55h-21.2c-1.41,0-2.56,1.15-2.56,2.55v21.5
		c0,1.41,1.15,2.56,2.56,2.56h21.2c1.41,0,2.56-1.16,2.56-2.56v-6.36h-8.21v3.34h-9.9V29.4h9.9v2.89L173.98,37.06z"/>
	<polygon class="st0" points="207.02,39.43 215.76,23.81 209.38,23.81 203.83,33.73 198.29,23.83 188.97,23.83 195.97,36.34 
		188.09,50.43 194.47,50.43 199.16,42.05 203.86,50.43 203.86,50.44 213.18,50.44 213.17,50.43 	"/>
	<path class="st0" d="M24.78,35.35h-4.86v3.55h4.86c-0.07-0.58-0.12-1.17-0.12-1.78C24.66,36.52,24.71,35.93,24.78,35.35"/>
	<path class="st0" d="M58.17,35.35h-5.28c0.07,0.58,0.12,1.17,0.12,1.78c0,0.6-0.05,1.19-0.12,1.78h5.28V35.35z"/>
	<path class="st0" d="M38.83,22.95c-7.23,0-13.18,5.41-14.05,12.4h28.1C52.01,28.36,46.06,22.95,38.83,22.95"/>
	<path class="st0" d="M38.83,51.3c7.22,0,13.17-5.41,14.05-12.4h-28.1C25.66,45.89,31.61,51.3,38.83,51.3"/>
	<path class="st0" d="M230.42,46.33c1.03,0,1.88-0.19,2.56-0.58c0.68-0.38,1.2-0.93,1.54-1.66c0.34-0.72,0.51-1.6,0.51-2.63
		c0-1.54-0.38-2.69-1.15-3.46c-0.76-0.77-1.92-1.15-3.46-1.15h-4.92v13.56h2.29v-4.1H230.42z M227.8,44.12v-5.04h2.61
		c0.77,0,1.35,0.19,1.72,0.59c0.37,0.39,0.56,1,0.55,1.81c0,0.55-0.08,1.02-0.24,1.42c-0.16,0.4-0.42,0.7-0.75,0.91
		c-0.34,0.21-0.76,0.32-1.28,0.32H227.8z M244.75,50.43v-2.21h-5.25V36.87h-2.29v13.56H244.75z"/>
	<rect x="218.97" y="47.51" class="st0" width="2.41" height="2.92"/>
</g>
</svg>
