<?xml version="1.0" encoding="UTF-8"?><svg id="a" xmlns="http://www.w3.org/2000/svg" viewBox="0 0 999 351.5"><defs><style>.b{fill:#007ddf;}.c{fill:#103346;}</style></defs><g><path class="c" d="M510.9,230.6h12.3c3.2,0,3.5,0,4.7,0,2.7,.2,4.8,1.3,5.9,3.2,1,1.7,1.4,3.6,1.4,7.3,0,5.6-1.4,8.4-4.9,9.5q-1.2,.4-6.7,.5h-6.8v9.8h-5.8v-30.4Zm12.4,15.6c5.1,0,6-.7,6-5.1s-.4-4.6-1.5-5.2c-.8-.4-1.4-.5-3.8-.5h-7.1v10.7h6.6Z"/><path class="c" d="M539.2,245.9c0-2.2,.2-3.2,.9-4.2,1.1-1.6,3.4-2.2,8.1-2.2,7.5,0,9.6,1.7,9.6,7.6v13.9h-5.1l.2-2.9h-.1c-1.1,2.5-2.7,3.2-6.7,3.2s-7.7-1.7-7.7-6.6,2.1-6.6,7.8-6.6,5.6,.5,6.5,2.5h0v-3.5c0-3.4-.9-4.2-4.3-4.2s-3.9,.5-4,3h-5.2Zm4.4,8.5c0,2.6,.8,3.2,4.5,3.2s4.7-.7,4.7-3.1-1-3.1-4.7-3.1-4.5,.6-4.5,3Z"/><path class="c" d="M576.1,245.5c-.2-2.3-.6-2.5-4.2-2.5s-4.3,.4-4.3,2.5,.4,2,1.2,2.3c.5,.1,.7,.2,4.3,.3,4.6,.2,5.8,.5,6.9,1.3,1.3,1,1.9,2.6,1.9,5s-.7,4-2,5.1c-1.5,1.2-3.6,1.7-8.1,1.7s-8.3-1-9.1-3.7c-.3-1-.4-1.4-.4-3.3h5.3v.6c0,2.2,.8,2.7,4.5,2.7s4.6-.5,4.6-2.8-.6-2.6-3-2.6c-9.3,0-11.2-1.1-11.2-6.4s2-6.3,9.6-6.3,9,1.3,9,6.1h-5Z"/><path class="c" d="M599.5,245.5c-.2-2.3-.6-2.5-4.2-2.5s-4.3,.4-4.3,2.5,.4,2,1.2,2.3c.5,.1,.7,.2,4.3,.3,4.6,.2,5.8,.5,6.9,1.3,1.3,1,1.9,2.6,1.9,5s-.7,4-2,5.1c-1.5,1.2-3.6,1.7-8.1,1.7s-8.3-1-9.1-3.7c-.3-1-.4-1.4-.4-3.3h5.3v.6c0,2.2,.8,2.7,4.5,2.7s4.6-.5,4.6-2.8-.6-2.6-3-2.6c-9.3,0-11.2-1.1-11.2-6.4s2-6.3,9.6-6.3,9,1.3,9,6.1h-5Z"/><path class="c" d="M615.1,235h-5.1v-4.4h5.1v4.4Zm0,26h-5.1v-21.3h5.1v21.3Z"/><path class="c" d="M637.9,241.2c1.6,1.5,2.2,3.8,2.2,8.6,0,9.5-1.7,11.4-10,11.4s-7.4-.8-8.7-2.9c-1-1.7-1.4-3.6-1.4-8.8s.6-6.9,2.3-8.4c1.5-1.3,3.4-1.7,7.9-1.7s6.3,.5,7.7,1.8Zm-12.7,8.9c0,6.2,.6,7.1,4.7,7.1s4.9-.9,4.9-7.3-.6-6.5-4.8-6.5-4.8,.9-4.8,6.7Z"/><path class="c" d="M650.3,239.7l-.2,3.6h0c1-2.7,3-3.9,6.6-3.9s5.7,1,6.7,2.8c.5,1,.7,2,.7,4.3v14.5h-5.1v-12.8c0-3.8-.6-4.6-3.8-4.6s-5,1.5-5,4.8v12.6h-5.2v-21.3h5.2Z"/><path class="c" d="M683,243.6h-3v-3.9h3v-2.3c0-2.5,.4-4.1,1.2-5.1,1.3-1.5,3.4-2.1,6.9-2.1s1.2,0,2.1,0v4c-.8-.1-1.3-.2-1.9-.2-2.5,0-3.2,.8-3.2,3.3v2.3h5.2v3.9h-5.2v17.4h-5.1v-17.4Z"/><path class="c" d="M714.4,241.2c1.6,1.5,2.2,3.8,2.2,8.6,0,9.5-1.7,11.4-10,11.4s-7.4-.8-8.7-2.9c-1-1.7-1.4-3.6-1.4-8.8s.6-6.9,2.3-8.4c1.5-1.3,3.4-1.7,7.9-1.7s6.3,.5,7.7,1.8Zm-12.7,8.9c0,6.2,.6,7.1,4.7,7.1s4.9-.9,4.9-7.3-.6-6.5-4.8-6.5-4.8,.9-4.8,6.7Z"/><path class="c" d="M726.7,239.7l-.3,3h0c1.4-2.4,2.9-3.3,5.8-3.3s3.4,.6,4.3,1.6c1,1.1,1.3,2.5,1.3,5.4v1.5h-4.8c0-.5,0-.6,0-1.2,0-2.6-.6-3.3-2.6-3.3s-2.8,.7-3.4,1.9c-.3,.7-.4,1.4-.4,3.1v12.5h-5.1v-21.3h5.1Z"/><path class="c" d="M772.4,261h-5l.2-3.4h0c-1.1,2.7-2.8,3.7-6.5,3.7s-5.1-.7-6.3-2c-1.5-1.6-2-3.6-2-9.3s.5-6.7,1.9-8.4c1.2-1.4,3.2-2.1,6.2-2.1s5.4,1,6.3,3.3h0v-12.1h5.1v30.4Zm-14.5-10.9c0,6,.7,7.2,4.6,7.2s4.8-1,4.8-7.3-.9-6.4-4.9-6.4-4.5,1.1-4.5,6.5Z"/><path class="c" d="M783.2,235h-5.1v-4.4h5.1v4.4Zm0,26h-5.1v-21.3h5.1v21.3Z"/><path class="c" d="M801.6,245.5c-.2-2.3-.6-2.5-4.2-2.5s-4.3,.4-4.3,2.5,.4,2,1.2,2.3c.5,.1,.7,.2,4.3,.3,4.6,.2,5.8,.5,6.9,1.3,1.3,1,1.9,2.6,1.9,5s-.7,4-2,5.1c-1.5,1.2-3.6,1.7-8.1,1.7s-8.3-1-9.1-3.7c-.3-1-.4-1.4-.4-3.3h5.3v.6c0,2.2,.8,2.7,4.5,2.7s4.6-.5,4.6-2.8-.6-2.6-3-2.6c-9.3,0-11.2-1.1-11.2-6.4s2-6.3,9.6-6.3,9,1.3,9,6.1h-5Z"/><path class="c" d="M817,239.7l-.2,3.1h0c1.4-2.6,3-3.4,6.9-3.4s4.8,.6,6,1.9c1.5,1.6,2.1,4,2.1,8.8,0,8.5-1.9,11.1-8.1,11.1s-5.4-.8-6.6-3.4h0v12.2h-5.3v-30.4h5.1Zm.2,10.5c0,5.6,.9,7,4.8,7s4.7-1.2,4.7-6.6-.7-7.1-4.8-7.1-4.7,1.2-4.7,6.7Z"/><path class="c" d="M842,261h-5.1v-30.4h5.1v30.4Z"/><path class="c" d="M847.8,245.9c0-2.2,.2-3.2,.9-4.2,1.1-1.6,3.4-2.2,8.1-2.2,7.5,0,9.6,1.7,9.6,7.6v13.9h-5.1l.2-2.9h-.1c-1.1,2.5-2.7,3.2-6.7,3.2s-7.7-1.7-7.7-6.6,2.1-6.6,7.8-6.6,5.6,.5,6.5,2.5h0v-3.5c0-3.4-.9-4.2-4.3-4.2s-3.9,.5-4,3h-5.2Zm4.4,8.5c0,2.6,.8,3.2,4.5,3.2s4.7-.7,4.7-3.1-1-3.1-4.7-3.1-4.5,.6-4.5,3Z"/><path class="c" d="M883.8,262.3c-1.5,6.4-3.4,8.1-8.5,8.1s-1.1,0-1.8,0v-3.7h1c1.4,0,2.3-.4,2.8-1.1,.7-1,1.2-2.6,1.5-4.5h-2.6l-7-21.3h5.5l2.6,9,1.4,4.5c.4,1.5,.8,2.9,1.2,4.5h.1c.2-1.2,.5-2.4,.8-3.6,0-.5,.5-2.3,1.2-5.4l2.1-9h5.3l-5.6,22.6Z"/><path class="c" d="M905.5,245.5c-.2-2.3-.6-2.5-4.2-2.5s-4.3,.4-4.3,2.5,.4,2,1.2,2.3c.5,.1,.7,.2,4.3,.3,4.6,.2,5.8,.5,6.9,1.3,1.3,1,1.9,2.6,1.9,5s-.7,4-2,5.1c-1.5,1.2-3.6,1.7-8.1,1.7s-8.3-1-9.1-3.7c-.3-1-.4-1.4-.4-3.3h5.3v.6c0,2.2,.8,2.7,4.5,2.7s4.6-.5,4.6-2.8-.6-2.6-3-2.6c-9.3,0-11.2-1.1-11.2-6.4s2-6.3,9.6-6.3,9,1.3,9,6.1h-5Z"/></g><g><path class="b" d="M87.7,107.4h24.7v46.8c0,9.1,.6,15.4,1.9,19,1.3,3.5,3.3,6.3,6,8.3,2.8,2,6.2,2.9,10.3,2.9s7.5-1,10.3-2.9c2.8-1.9,4.9-4.8,6.3-8.5,1-2.8,1.5-8.8,1.5-18v-47.6h24.4v41.2c0,17-1.3,28.6-4,34.9-3.3,7.6-8.1,13.5-14.5,17.6-6.4,4.1-14.5,6.1-24.3,6.1s-19.3-2.4-25.9-7.1c-6.6-4.8-11.2-11.4-13.9-19.9-1.9-5.9-2.9-16.6-2.9-32.2v-40.5Z"/><path class="b" d="M188.7,107.4h24.4v10c5.5-4.7,10.5-7.9,15-9.7,4.5-1.8,9.1-2.7,13.8-2.7,9.6,0,17.8,3.4,24.5,10.1,5.7,5.7,8.5,14.2,8.5,25.4v64.3h-24.1v-42.6c0-11.6-.5-19.3-1.6-23.1-1-3.8-2.9-6.7-5.4-8.7-2.6-2-5.8-3-9.6-3s-9.2,1.7-12.7,5c-3.5,3.3-6,7.9-7.4,13.7-.7,3-1.1,9.6-1.1,19.7v39h-24.4V107.4Z"/><path class="b" d="M291.2,141.8h24.4v63.2h-24.4v-63.2Zm12.2-36.4c3.6,0,6.6,1.3,9.1,3.8,2.5,2.6,3.8,5.7,3.8,9.3s-1.3,6.6-3.8,9.2c-2.5,2.5-5.5,3.8-9,3.8s-6.7-1.3-9.2-3.9c-2.7-2.8-4-6.1-3.8-10.2,.1-2.8,1.2-5.4,3-7.5,2.7-3,5.9-4.6,9.9-4.6"/><path class="b" d="M396.3,121l-15.1,15.1c-6.1-6.1-11.7-9.1-16.7-9.1s-4.9,.6-6.4,1.7c-1.6,1.2-2.3,2.6-2.3,4.3s.5,2.5,1.5,3.6c1,1.1,3.4,2.6,7.3,4.5l8.9,4.5c9.4,4.6,15.9,9.4,19.4,14.2,3.5,4.8,5.3,10.5,5.3,17s-3.2,15.8-9.5,21.6c-6.3,5.8-14.9,8.7-25.5,8.7s-25.5-5.5-34-16.6l15-16.4c2.9,3.3,6.2,6,10.1,8.1,3.8,2.1,7.3,3.1,10.2,3.1s5.8-.8,7.8-2.3c2-1.5,2.9-3.3,2.9-5.4,0-3.8-3.5-7.4-10.6-11l-8.2-4.1c-15.7-7.9-23.6-17.8-23.6-29.8s3-14.3,8.9-19.7c5.9-5.5,13.5-8.2,22.7-8.2s12.3,1.4,17.8,4.2c5.6,2.8,10.3,6.7,14.2,11.9"/><polygon class="b" points="481.3 107.4 453.4 168.4 428.1 107.4 403.2 107.4 440.2 197.3 425.1 231.1 450.1 231.1 506.3 107.4 481.3 107.4"/><path class="b" d="M574,121l-15.1,15.1c-6.1-6.1-11.7-9.1-16.7-9.1s-4.9,.6-6.4,1.7c-1.6,1.2-2.3,2.6-2.3,4.3s.5,2.5,1.5,3.6c1,1.1,3.4,2.6,7.3,4.5l8.9,4.5c9.4,4.6,15.9,9.4,19.4,14.2,3.5,4.8,5.3,10.5,5.3,17s-3.2,15.8-9.5,21.6c-6.3,5.8-14.9,8.7-25.5,8.7s-25.5-5.5-34-16.6l15-16.4c2.9,3.3,6.2,6,10.1,8.1,3.8,2.1,7.3,3.1,10.2,3.1s5.8-.8,7.8-2.3c2-1.5,2.9-3.3,2.9-5.4,0-3.8-3.5-7.4-10.6-11l-8.2-4.1c-15.7-7.9-23.6-17.8-23.6-29.8s3-14.3,8.9-19.7c5.9-5.5,13.5-8.2,22.7-8.2s12.3,1.4,17.8,4.2c5.6,2.8,10.3,6.7,14.2,11.9"/><polygon class="b" points="601.1 81.1 601.1 107 588.6 107 588.6 127.7 601.1 127.7 601.1 204.6 625.5 204.6 625.5 127.6 640 127.6 640 106.9 625.5 106.9 625.5 81.1 601.1 81.1"/><path class="b" d="M724.1,143.8c-1.6-5.4-4.8-9.8-9.5-13.2-4.7-3.4-10.3-5.1-16.5-5.1s-12.8,1.9-17.9,5.7c-3.2,2.4-6.2,6.6-9,12.6h52.9Zm24.4,19.2h-78.4c1.1,6.9,4.2,12.4,9.1,16.5,4.9,4.1,11.2,6.1,18.8,6.1s16.9-3.2,23.5-9.6l20.6,9.7c-5.1,7.3-11.3,12.6-18.4,16.1-7.1,3.5-15.6,5.2-25.5,5.2-15.3,0-27.7-4.8-37.3-14.4-9.6-9.6-14.4-21.7-14.4-36.2s4.8-27.2,14.3-37c9.6-9.8,21.5-14.7,36-14.7s27.8,4.9,37.4,14.7c9.6,9.8,14.4,22.7,14.4,38.8v4.6Z"/><path class="b" d="M761.2,107.4h24.5v11.2c4.2-4.6,8.8-8,14-10.3,5.1-2.3,10.7-3.4,16.7-3.4s11.6,1.5,16.5,4.5c4.9,3,8.9,7.3,11.9,13,3.9-5.7,8.7-10.1,14.3-13,5.7-3,11.8-4.5,18.5-4.5s13,1.6,18.3,4.8c5.3,3.2,9,7.4,11.4,12.6,2.3,5.2,3.5,13.6,3.5,25.3v57h-24.7v-49.3c0-11-1.4-18.5-4.1-22.4-2.8-3.9-6.9-5.9-12.4-5.9s-7.9,1.2-11.3,3.6c-3.3,2.4-5.8,5.7-7.4,9.9-1.6,4.2-2.4,10.9-2.4,20.2v43.9h-24.7v-47.1c0-8.7-.6-15-1.9-18.9-1.3-3.9-3.2-6.8-5.8-8.7-2.6-1.9-5.7-2.9-9.4-2.9s-7.8,1.2-11.1,3.6c-3.3,2.4-5.8,5.8-7.5,10.1-1.7,4.3-2.5,11.2-2.5,20.6v43.3h-24.5V107.4Z"/></g></svg>